<svg width="444.99500732421876px" height="120.8px" xmlns="http://www.w3.org/2000/svg" viewBox="27.50249633789062 14.600000000000001 444.99500732421876 120.8" style="background: rgba(0, 0, 0, 0);" preserveAspectRatio="xMidYMid"><defs><linearGradient id="editing-shiny-gradient" x1="0.04322727117869957" x2="0.9567727288213004" y1="0.2966316784620999" y2="0.7033683215379001" gradientUnits="objectBoundingBox"><stop offset="0.0" stop-color="#ffb200"></stop><stop offset="0.5" stop-color="#e10057"></stop><stop offset="1.0" stop-color="#5A1A80"></stop></linearGradient><linearGradient id="editing-shiny-gradient2" x1="0" x2="0" y1="0" y2="1"><stop offset="0.2" stop-color="#fff" stop-opacity="0.8"></stop><stop offset="0.8" stop-color="#fff" stop-opacity="0"></stop></linearGradient><filter id="editing-shiny2" x="-100%" y="-100%" width="300%" height="300%"><feMorphology operator="erode" radius="2"></feMorphology></filter><filter id="editing-shiny" x="-100%" y="-100%" width="300%" height="300%"><feFlood flood-color="#fff" result="flood"></feFlood><feConvolveMatrix in="SourceGraphic" result="conv" order="8,8" divisor="1" kernelMatrix="0 0 0 0 0 0 0 0 0 0 0 1 1 0 0 0 0 0 0 1 1 0 0 0 0 0 1 0 0 1 0 0 0 0 1 0 0 1 0 0 0 1 0 0 0 0 1 0 0 1 1 0 0 1 1 0 0 0 0 1 1 0 0 0 "></feConvolveMatrix><feOffset dx="0" dy="4" in="conv" result="offset"></feOffset><feComposite operator="in" in="flood" in2="offset" result="comp"></feComposite><feGaussianBlur in="offset" stdDeviation="3" result="shadow"></feGaussianBlur><feColorMatrix in="shadow" type="matrix" values="0.7 0 0 0 0  0 0.7 0 0 0  0 0 0.7 0 0  0 0 0 0.3 0" result="dark-shadow"></feColorMatrix><feOffset dx="0" dy="4" in="dark-shadow" result="offset-shadow"></feOffset><feOffset dx="0" dy="2" in="conv" result="offset-2"></feOffset><feComposite operator="out" in="offset" in2="offset-2" result="edge-diff"></feComposite><feGaussianBlur in="edge-diff" stdDeviation="1" result="edge-blur"></feGaussianBlur><feColorMatrix in="edge-blur" result="edge-shadow" type="matrix" values="0 0 0 0 0  0 0 0 0 0  0 0 0 0 0  0 0 0 0.5 0"></feColorMatrix><feComposite operator="in" in="edge-shadow" in2="offset" result="edge-shadow-in"></feComposite><feOffset dx="0" dy="1" in="edge-shadow-in" result="edge-shadow-final"></feOffset><feMerge result="out"><feMergeNode in="offset-shadow"></feMergeNode><feMergeNode in="comp"></feMergeNode><feMergeNode in="edge-shadow-final"></feMergeNode><feMergeNode in="SourceGraphic"></feMergeNode></feMerge></filter></defs><g filter="url(#editing-shiny)"><g transform="translate(92.59002161026001, 98.68000030517578)"><path d="M2.69-39.68L2.69-39.68L2.69-39.68Q3.58-41.47 5.54-42.46L5.54-42.46L5.54-42.46Q7.49-43.46 10.18-43.46L10.18-43.46L10.18-43.46Q14.40-43.46 16.93-40.42L16.93-40.42L16.93-40.42Q19.46-37.38 19.46-30.72L19.46-30.72L19.46-7.87L34.11-42.18L41.66-42.18L43.39-9.79L43.20-7.94L58.43-42.18L67.20-42.18L46.72 0L33.09 0L31.81-19.46L23.36 0L7.94 0L6.02-30.72L6.02-30.72Q5.82-34.18 4.90-36.45L4.90-36.45L4.90-36.45Q3.97-38.72 2.69-39.68ZM66.14-1.92L66.14-1.92L66.14-1.92Q64.64-3.58 63.97-6.21L63.97-6.21L63.97-6.21Q63.30-8.83 63.30-13.12L63.30-13.12L63.30-13.12Q63.30-17.41 64.77-21.31L64.77-21.31L64.77-21.31Q66.24-25.22 68.93-28.03L68.93-28.03L68.93-28.03Q74.43-33.92 83.52-33.92L83.52-33.92L83.52-33.92Q86.78-33.92 89.15-32.83L89.15-32.83L100.10-33.92L95.36-8.96L95.36-8.96Q95.17-8.19 95.17-6.78L95.17-6.78L95.17-6.78Q95.17-5.38 96.03-4.48L96.03-4.48L96.03-4.48Q96.90-3.58 98.18-3.46L98.18-3.46L98.18-3.46Q97.54-1.28 95.20 0L95.20 0L95.20 0Q92.86 1.28 90.24 1.28L90.24 1.28L90.24 1.28Q87.62 1.28 85.86 0.29L85.86 0.29L85.86 0.29Q84.10-0.70 83.58-2.37L83.58-2.37L83.58-2.37Q82.56-0.77 80.38 0.26L80.38 0.26L80.38 0.26Q78.21 1.28 75.30 1.28L75.30 1.28L75.30 1.28Q72.38 1.28 70.02 0.51L70.02 0.51L70.02 0.51Q67.65-0.26 66.14-1.92ZM79.65-27.90L79.65-27.90L79.65-27.90Q78.91-26.75 78.27-24.80L78.27-24.80L78.27-24.80Q77.63-22.85 76.58-17.63L76.58-17.63L76.58-17.63Q75.52-12.42 75.52-8.70L75.52-8.70L75.52-8.70Q75.52-4.99 76.10-3.90L76.10-3.90L76.10-3.90Q76.67-2.82 77.70-2.82L77.70-2.82L77.70-2.82Q79.74-2.82 81.25-4.77L81.25-4.77L81.25-4.77Q82.75-6.72 83.33-10.18L83.33-10.18L86.72-28.93L86.72-28.93Q85.38-30.08 83.81-30.08L83.81-30.08L83.81-30.08Q82.24-30.08 81.31-29.57L81.31-29.57L81.31-29.57Q80.38-29.06 79.65-27.90ZM104.58-6.40L104.58-6.40L104.58-6.40Q104.58-8.13 105.47-12.48L105.47-12.48L108.86-29.76L105.09-29.76L105.34-31.68L105.34-31.68Q113.02-33.98 120.45-39.62L120.45-39.62L123.52-39.62L121.98-32.64L126.98-32.64L126.40-29.76L121.47-29.76L118.21-12.48L118.21-12.48Q117.38-8.51 117.38-7.17L117.38-7.17L117.38-7.17Q117.38-4.10 120.06-3.46L120.06-3.46L120.06-3.46Q119.42-1.28 117.12 0L117.12 0L117.12 0Q114.82 1.28 111.55 1.28L111.55 1.28L111.55 1.28Q108.29 1.28 106.43-0.77L106.43-0.77L106.43-0.77Q104.58-2.82 104.58-6.40ZM157.82-26.62L157.82-26.62L157.82-26.62Q157.82-23.94 155.58-22.27L155.58-22.27L155.58-22.27Q153.34-20.61 149.70-20.61L149.70-20.61L149.70-20.61Q148.16-20.61 147.26-21.06L147.26-21.06L147.26-21.06Q147.97-22.72 148.19-24.80L148.19-24.80L148.19-24.80Q148.42-26.88 148.42-27.46L148.42-27.46L148.42-27.46Q148.42-30.14 146.56-30.14L146.56-30.14L146.56-30.14Q145.28-30.14 143.84-28.54L143.84-28.54L143.84-28.54Q142.40-26.94 141.18-24.45L141.18-24.45L141.18-24.45Q138.50-18.69 138.50-12.86L138.50-12.86L138.50-12.86Q138.50-9.66 139.71-8.22L139.71-8.22L139.71-8.22Q140.93-6.78 143.62-6.78L143.62-6.78L143.62-6.78Q147.33-6.78 150.27-9.86L150.27-9.86L150.27-9.86Q151.10-10.82 151.55-11.90L151.55-11.90L151.55-11.90Q153.98-10.62 153.98-7.10L153.98-7.10L153.98-7.10Q153.98-3.52 150.02-1.15L150.02-1.15L150.02-1.15Q145.92 1.28 139.39 1.28L139.39 1.28L139.39 1.28Q126.40 1.28 126.40-12.48L126.40-12.48L126.40-12.48Q126.40-22.53 132.10-28.29L132.10-28.29L132.10-28.29Q137.60-33.92 147.71-33.92L147.71-33.92L147.71-33.92Q157.82-33.92 157.82-26.62ZM191.74-7.10L191.74-7.10L191.74-7.10Q191.74-4.29 194.62-3.46L194.62-3.46L194.62-3.46Q193.92-1.09 191.17 0.19L191.17 0.19L191.17 0.19Q188.86 1.28 186.34 1.28L186.34 1.28L186.34 1.28Q183.81 1.28 182.50 0.61L182.50 0.61L182.50 0.61Q181.18-0.06 180.48-1.15L180.48-1.15L180.48-1.15Q179.33-2.82 179.33-5.95L179.33-5.95L179.33-5.95Q179.33-7.81 180.35-12.93L180.35-12.93L181.25-17.79L181.25-17.79Q182.34-23.36 182.34-25.41L182.34-25.41L182.34-25.41Q182.34-28.99 180.35-28.99L180.35-28.99L180.35-28.99Q177.86-28.99 176.26-25.34L176.26-25.34L176.26-25.34Q175.62-23.94 175.17-21.82L175.17-21.82L170.82 0L157.95 1.28L166.98-44.80L179.84-46.08L179.33-43.52L179.33-43.52Q177.54-33.66 176-30.34L176-30.34L176-30.34Q179.58-33.92 186.18-33.92L186.18-33.92L186.18-33.92Q193.15-33.92 194.43-29.31L194.43-29.31L194.43-29.31Q194.88-27.84 194.88-26.56L194.88-26.56L194.88-26.56Q194.88-25.28 194.78-24.29L194.78-24.29L194.78-24.29Q194.69-23.30 194.37-21.50L194.37-21.50L193.54-16.90L192.06-9.66L192.06-9.66Q191.74-8.19 191.74-7.10ZM199.17-0.32L199.17-0.32L207.23-42.24L207.23-42.24Q214.78-42.88 219.65-42.88L219.65-42.88L219.65-42.88Q224.51-42.88 227.65-42.46L227.65-42.46L227.65-42.46Q230.78-42.05 232.90-40.96L232.90-40.96L232.90-40.96Q237.12-38.91 237.12-33.28L237.12-33.28L237.12-33.28Q237.12-30.02 234.30-27.26L234.30-27.26L234.30-27.26Q231.68-24.77 228.80-24.19L228.80-24.19L228.80-24.19Q231.87-23.68 234.05-21.38L234.05-21.38L234.05-21.38Q236.35-18.94 236.35-15.17L236.35-15.17L236.35-15.17Q236.35-7.87 230.91-3.62L230.91-3.62L230.91-3.62Q225.47 0.64 214.78 0.64L214.78 0.64L214.78 0.64Q207.42 0.64 199.17-0.32ZM216.58-20.61L213.38-4.03L213.38-4.03Q213.95-3.97 214.08-3.97L214.08-3.97L214.66-3.97L214.66-3.97Q219.90-3.97 222.14-7.42L222.14-7.42L222.14-7.42Q223.81-10.11 223.81-15.04L223.81-15.04L223.81-15.04Q223.81-17.66 222.11-19.07L222.11-19.07L222.11-19.07Q220.42-20.48 216.58-20.61L216.58-20.61ZM226.30-33.22L226.30-33.22L226.30-33.22Q226.30-38.53 221.18-38.53L221.18-38.53L220.61-38.53L220.61-38.53Q220.35-38.53 219.97-38.46L219.97-38.46L217.41-24.96L218.05-24.96L218.05-24.96Q226.30-25.15 226.30-33.22ZM254.53 1.28L254.53 1.28L254.53 1.28Q240.45 1.28 240.45-11.97L240.45-11.97L240.45-11.97Q240.45-21.38 245.63-27.46L245.63-27.46L245.63-27.46Q251.14-33.92 260.67-33.92L260.67-33.92L260.67-33.92Q267.58-33.92 271.10-30.72L271.10-30.72L271.10-30.72Q274.62-27.52 274.62-20.80L274.62-20.80L274.62-20.80Q274.62-10.56 269.12-4.61L269.12-4.61L269.12-4.61Q263.74 1.28 254.53 1.28ZM256.19-26.56L256.19-26.56L256.19-26.56Q255.42-24.83 254.82-22.24L254.82-22.24L254.82-22.24Q254.21-19.65 253.44-15.55L253.44-15.55L253.44-15.55Q252.67-11.46 252.67-6.40L252.67-6.40L252.67-6.40Q252.67-4.74 253.22-3.65L253.22-3.65L253.22-3.65Q253.76-2.56 255.23-2.56L255.23-2.56L255.23-2.56Q256.70-2.56 257.63-3.26L257.63-3.26L257.63-3.26Q258.56-3.97 259.26-5.63L259.26-5.63L259.26-5.63Q260.54-8.58 261.57-14.05L261.57-14.05L261.57-14.05Q262.59-19.52 262.69-21.89L262.69-21.89L262.69-21.89Q262.78-24.26 262.78-26.02L262.78-26.02L262.78-26.02Q262.78-27.78 262.27-28.93L262.27-28.93L262.27-28.93Q261.76-30.08 260.32-30.08L260.32-30.08L260.32-30.08Q258.88-30.08 257.92-29.18L257.92-29.18L257.92-29.18Q256.96-28.29 256.19-26.56ZM286.91 0.19L286.91 0.19L286.91 0.19Q284.86 1.28 282.05 1.28L282.05 1.28L282.05 1.28Q279.23 1.28 277.70-0.16L277.70-0.16L277.70-0.16Q276.16-1.60 276.16-4.38L276.16-4.38L276.16-4.38Q276.16-7.17 278.11-9.89L278.11-9.89L278.11-9.89Q280.06-12.61 282.98-14.14L282.98-14.14L282.98-14.14Q285.89-15.68 287.94-16.58L287.94-16.58L283.90-25.86L283.90-25.86Q282.82-28.22 280.77-28.22L280.77-28.22L280.26-28.16L280.06-28.16L280.06-28.16Q280.45-30.40 283.07-32.13L283.07-32.13L283.07-32.13Q285.70-33.92 288.70-33.92L288.70-33.92L288.70-33.92Q293.57-33.92 295.81-29.06L295.81-29.06L296.32-28.03L299.07-21.25L299.07-21.25Q300.80-22.02 301.54-23.46L301.54-23.46L301.54-23.46Q302.27-24.90 302.27-27.74L302.27-27.74L302.27-27.74Q302.27-30.59 300.74-32.38L300.74-32.38L300.74-32.38Q303.17-33.92 306.37-33.92L306.37-33.92L306.37-33.92Q312.13-33.92 312.13-28.35L312.13-28.35L312.13-28.35Q312.13-22.27 304.51-18.75L304.51-18.75L300.67-16.96L304.13-8.06L304.13-8.06Q305.15-5.38 307.01-4.22L307.01-4.22L307.01-4.22Q307.78-3.71 308.67-3.65L308.67-3.65L308.67-3.65Q306.75-0.51 302.59 0.90L302.59 0.90L302.59 0.90Q301.31 1.28 299.58 1.28L299.58 1.28L299.58 1.28Q297.86 1.28 295.87 0.10L295.87 0.10L295.87 0.10Q293.89-1.09 293.18-2.94L293.18-2.94L289.66-12.10L289.66-12.10Q286.08-10.50 286.08-4.67L286.08-4.67L286.08-4.67Q286.08-1.98 286.91 0.19Z" fill="url(#editing-shiny-gradient)"></path></g></g><g filter="url(#editing-shiny2)"><g transform="translate(92.58996057510376, 98.68000030517578)"><path d="M2.69-39.68L2.69-39.68L2.69-39.68Q3.58-41.47 5.54-42.46L5.54-42.46L5.54-42.46Q7.49-43.46 10.18-43.46L10.18-43.46L10.18-43.46Q14.40-43.46 16.93-40.42L16.93-40.42L16.93-40.42Q19.46-37.38 19.46-30.72L19.46-30.72L19.46-7.87L34.11-42.18L41.66-42.18L43.39-9.79L43.20-7.94L58.43-42.18L67.20-42.18L46.72 0L33.09 0L31.81-19.46L23.36 0L7.94 0L6.02-30.72L6.02-30.72Q5.82-34.18 4.90-36.45L4.90-36.45L4.90-36.45Q3.97-38.72 2.69-39.68ZM66.14-1.92L66.14-1.92L66.14-1.92Q64.64-3.58 63.97-6.21L63.97-6.21L63.97-6.21Q63.30-8.83 63.30-13.12L63.30-13.12L63.30-13.12Q63.30-17.41 64.77-21.31L64.77-21.31L64.77-21.31Q66.24-25.22 68.93-28.03L68.93-28.03L68.93-28.03Q74.43-33.92 83.52-33.92L83.52-33.92L83.52-33.92Q86.78-33.92 89.15-32.83L89.15-32.83L100.10-33.92L95.36-8.96L95.36-8.96Q95.17-8.19 95.17-6.78L95.17-6.78L95.17-6.78Q95.17-5.38 96.03-4.48L96.03-4.48L96.03-4.48Q96.90-3.58 98.18-3.46L98.18-3.46L98.18-3.46Q97.54-1.28 95.20 0L95.20 0L95.20 0Q92.86 1.28 90.24 1.28L90.24 1.28L90.24 1.28Q87.62 1.28 85.86 0.29L85.86 0.29L85.86 0.29Q84.10-0.70 83.58-2.37L83.58-2.37L83.58-2.37Q82.56-0.77 80.38 0.26L80.38 0.26L80.38 0.26Q78.21 1.28 75.30 1.28L75.30 1.28L75.30 1.28Q72.38 1.28 70.02 0.51L70.02 0.51L70.02 0.51Q67.65-0.26 66.14-1.92ZM79.65-27.90L79.65-27.90L79.65-27.90Q78.91-26.75 78.27-24.80L78.27-24.80L78.27-24.80Q77.63-22.85 76.58-17.63L76.58-17.63L76.58-17.63Q75.52-12.42 75.52-8.70L75.52-8.70L75.52-8.70Q75.52-4.99 76.10-3.90L76.10-3.90L76.10-3.90Q76.67-2.82 77.70-2.82L77.70-2.82L77.70-2.82Q79.74-2.82 81.25-4.77L81.25-4.77L81.25-4.77Q82.75-6.72 83.33-10.18L83.33-10.18L86.72-28.93L86.72-28.93Q85.38-30.08 83.81-30.08L83.81-30.08L83.81-30.08Q82.24-30.08 81.31-29.57L81.31-29.57L81.31-29.57Q80.38-29.06 79.65-27.90ZM104.58-6.40L104.58-6.40L104.58-6.40Q104.58-8.13 105.47-12.48L105.47-12.48L108.86-29.76L105.09-29.76L105.34-31.68L105.34-31.68Q113.02-33.98 120.45-39.62L120.45-39.62L123.52-39.62L121.98-32.64L126.98-32.64L126.40-29.76L121.47-29.76L118.21-12.48L118.21-12.48Q117.38-8.51 117.38-7.17L117.38-7.17L117.38-7.17Q117.38-4.10 120.06-3.46L120.06-3.46L120.06-3.46Q119.42-1.28 117.12 0L117.12 0L117.12 0Q114.82 1.28 111.55 1.28L111.55 1.28L111.55 1.28Q108.29 1.28 106.43-0.77L106.43-0.77L106.43-0.77Q104.58-2.82 104.58-6.40ZM157.82-26.62L157.82-26.62L157.82-26.62Q157.82-23.94 155.58-22.27L155.58-22.27L155.58-22.27Q153.34-20.61 149.70-20.61L149.70-20.61L149.70-20.61Q148.16-20.61 147.26-21.06L147.26-21.06L147.26-21.06Q147.97-22.72 148.19-24.80L148.19-24.80L148.19-24.80Q148.42-26.88 148.42-27.46L148.42-27.46L148.42-27.46Q148.42-30.14 146.56-30.14L146.56-30.14L146.56-30.14Q145.28-30.14 143.84-28.54L143.84-28.54L143.84-28.54Q142.40-26.94 141.18-24.45L141.18-24.45L141.18-24.45Q138.50-18.69 138.50-12.86L138.50-12.86L138.50-12.86Q138.50-9.66 139.71-8.22L139.71-8.22L139.71-8.22Q140.93-6.78 143.62-6.78L143.62-6.78L143.62-6.78Q147.33-6.78 150.27-9.86L150.27-9.86L150.27-9.86Q151.10-10.82 151.55-11.90L151.55-11.90L151.55-11.90Q153.98-10.62 153.98-7.10L153.98-7.10L153.98-7.10Q153.98-3.52 150.02-1.15L150.02-1.15L150.02-1.15Q145.92 1.28 139.39 1.28L139.39 1.28L139.39 1.28Q126.40 1.28 126.40-12.48L126.40-12.48L126.40-12.48Q126.40-22.53 132.10-28.29L132.10-28.29L132.10-28.29Q137.60-33.92 147.71-33.92L147.71-33.92L147.71-33.92Q157.82-33.92 157.82-26.62ZM191.74-7.10L191.74-7.10L191.74-7.10Q191.74-4.29 194.62-3.46L194.62-3.46L194.62-3.46Q193.92-1.09 191.17 0.19L191.17 0.19L191.17 0.19Q188.86 1.28 186.34 1.28L186.34 1.28L186.34 1.28Q183.81 1.28 182.50 0.61L182.50 0.61L182.50 0.61Q181.18-0.06 180.48-1.15L180.48-1.15L180.48-1.15Q179.33-2.82 179.33-5.95L179.33-5.95L179.33-5.95Q179.33-7.81 180.35-12.93L180.35-12.93L181.25-17.79L181.25-17.79Q182.34-23.36 182.34-25.41L182.34-25.41L182.34-25.41Q182.34-28.99 180.35-28.99L180.35-28.99L180.35-28.99Q177.86-28.99 176.26-25.34L176.26-25.34L176.26-25.34Q175.62-23.94 175.17-21.82L175.17-21.82L170.82 0L157.95 1.28L166.98-44.80L179.84-46.08L179.33-43.52L179.33-43.52Q177.54-33.66 176-30.34L176-30.34L176-30.34Q179.58-33.92 186.18-33.92L186.18-33.92L186.18-33.92Q193.15-33.92 194.43-29.31L194.43-29.31L194.43-29.31Q194.88-27.84 194.88-26.56L194.88-26.56L194.88-26.56Q194.88-25.28 194.78-24.29L194.78-24.29L194.78-24.29Q194.69-23.30 194.37-21.50L194.37-21.50L193.54-16.90L192.06-9.66L192.06-9.66Q191.74-8.19 191.74-7.10ZM199.17-0.32L199.17-0.32L207.23-42.24L207.23-42.24Q214.78-42.88 219.65-42.88L219.65-42.88L219.65-42.88Q224.51-42.88 227.65-42.46L227.65-42.46L227.65-42.46Q230.78-42.05 232.90-40.96L232.90-40.96L232.90-40.96Q237.12-38.91 237.12-33.28L237.12-33.28L237.12-33.28Q237.12-30.02 234.30-27.26L234.30-27.26L234.30-27.26Q231.68-24.77 228.80-24.19L228.80-24.19L228.80-24.19Q231.87-23.68 234.05-21.38L234.05-21.38L234.05-21.38Q236.35-18.94 236.35-15.17L236.35-15.17L236.35-15.17Q236.35-7.87 230.91-3.62L230.91-3.62L230.91-3.62Q225.47 0.64 214.78 0.64L214.78 0.64L214.78 0.64Q207.42 0.64 199.17-0.32ZM216.58-20.61L213.38-4.03L213.38-4.03Q213.95-3.97 214.08-3.97L214.08-3.97L214.66-3.97L214.66-3.97Q219.90-3.97 222.14-7.42L222.14-7.42L222.14-7.42Q223.81-10.11 223.81-15.04L223.81-15.04L223.81-15.04Q223.81-17.66 222.11-19.07L222.11-19.07L222.11-19.07Q220.42-20.48 216.58-20.61L216.58-20.61ZM226.30-33.22L226.30-33.22L226.30-33.22Q226.30-38.53 221.18-38.53L221.18-38.53L220.61-38.53L220.61-38.53Q220.35-38.53 219.97-38.46L219.97-38.46L217.41-24.96L218.05-24.96L218.05-24.96Q226.30-25.15 226.30-33.22ZM254.53 1.28L254.53 1.28L254.53 1.28Q240.45 1.28 240.45-11.97L240.45-11.97L240.45-11.97Q240.45-21.38 245.63-27.46L245.63-27.46L245.63-27.46Q251.14-33.92 260.67-33.92L260.67-33.92L260.67-33.92Q267.58-33.92 271.10-30.72L271.10-30.72L271.10-30.72Q274.62-27.52 274.62-20.80L274.62-20.80L274.62-20.80Q274.62-10.56 269.12-4.61L269.12-4.61L269.12-4.61Q263.74 1.28 254.53 1.28ZM256.19-26.56L256.19-26.56L256.19-26.56Q255.42-24.83 254.82-22.24L254.82-22.24L254.82-22.24Q254.21-19.65 253.44-15.55L253.44-15.55L253.44-15.55Q252.67-11.46 252.67-6.40L252.67-6.40L252.67-6.40Q252.67-4.74 253.22-3.65L253.22-3.65L253.22-3.65Q253.76-2.56 255.23-2.56L255.23-2.56L255.23-2.56Q256.70-2.56 257.63-3.26L257.63-3.26L257.63-3.26Q258.56-3.97 259.26-5.63L259.26-5.63L259.26-5.63Q260.54-8.58 261.57-14.05L261.57-14.05L261.57-14.05Q262.59-19.52 262.69-21.89L262.69-21.89L262.69-21.89Q262.78-24.26 262.78-26.02L262.78-26.02L262.78-26.02Q262.78-27.78 262.27-28.93L262.27-28.93L262.27-28.93Q261.76-30.08 260.32-30.08L260.32-30.08L260.32-30.08Q258.88-30.08 257.92-29.18L257.92-29.18L257.92-29.18Q256.96-28.29 256.19-26.56ZM286.91 0.19L286.91 0.19L286.91 0.19Q284.86 1.28 282.05 1.28L282.05 1.28L282.05 1.28Q279.23 1.28 277.70-0.16L277.70-0.16L277.70-0.16Q276.16-1.60 276.16-4.38L276.16-4.38L276.16-4.38Q276.16-7.17 278.11-9.89L278.11-9.89L278.11-9.89Q280.06-12.61 282.98-14.14L282.98-14.14L282.98-14.14Q285.89-15.68 287.94-16.58L287.94-16.58L283.90-25.86L283.90-25.86Q282.82-28.22 280.77-28.22L280.77-28.22L280.26-28.16L280.06-28.16L280.06-28.16Q280.45-30.40 283.07-32.13L283.07-32.13L283.07-32.13Q285.70-33.92 288.70-33.92L288.70-33.92L288.70-33.92Q293.57-33.92 295.81-29.06L295.81-29.06L296.32-28.03L299.07-21.25L299.07-21.25Q300.80-22.02 301.54-23.46L301.54-23.46L301.54-23.46Q302.27-24.90 302.27-27.74L302.27-27.74L302.27-27.74Q302.27-30.59 300.74-32.38L300.74-32.38L300.74-32.38Q303.17-33.92 306.37-33.92L306.37-33.92L306.37-33.92Q312.13-33.92 312.13-28.35L312.13-28.35L312.13-28.35Q312.13-22.27 304.51-18.75L304.51-18.75L300.67-16.96L304.13-8.06L304.13-8.06Q305.15-5.38 307.01-4.22L307.01-4.22L307.01-4.22Q307.78-3.71 308.67-3.65L308.67-3.65L308.67-3.65Q306.75-0.51 302.59 0.90L302.59 0.90L302.59 0.90Q301.31 1.28 299.58 1.28L299.58 1.28L299.58 1.28Q297.86 1.28 295.87 0.10L295.87 0.10L295.87 0.10Q293.89-1.09 293.18-2.94L293.18-2.94L289.66-12.10L289.66-12.10Q286.08-10.50 286.08-4.67L286.08-4.67L286.08-4.67Q286.08-1.98 286.91 0.19Z" fill="url(#editing-shiny-gradient2)"></path></g></g><style>text {
  font-size: 64px;
  font-family: Arial Black;
  dominant-baseline: central;
  text-anchor: middle;
}</style></svg>